<svg width="50" height="51" viewBox="0 0 50 51" fill="none" xmlns="http://www.w3.org/2000/svg">
<path fill-rule="evenodd" clip-rule="evenodd" d="M35.1946 16.0278C35.3946 15.9123 35.6151 15.8406 35.8456 15.8261C36.8621 15.7621 39.798 15.678 40.4347 16.7809C41.0715 17.8838 39.5298 20.3837 38.9661 21.2314C38.8383 21.4235 38.666 21.5784 38.4662 21.6938L32.3904 25.2016L33.2343 42.302C33.2461 42.5415 33.125 42.7679 32.9194 42.8911L31.6701 43.6393C31.5055 43.7379 31.3058 43.7587 31.1245 43.696L30.1776 43.369C30.019 43.3143 29.8878 43.2002 29.8114 43.0509L23.3534 30.4192L16.9843 34.0963L16.2974 38.7678C16.2498 39.0912 15.9694 39.3288 15.6426 39.3226L15.1446 39.3132C14.8928 39.3084 14.6664 39.1584 14.5638 38.9282L12.7741 34.9122C11.544 34.9515 10.3891 34.8306 10.0792 34.294C9.76972 33.7579 10.2429 32.7021 10.893 31.6611L8.32953 28.1301C8.18152 27.9263 8.16479 27.6552 8.28659 27.4347L8.52739 26.9987C8.68541 26.7126 9.03142 26.5886 9.33523 26.7091L13.6974 28.4392L20.0779 24.7555L12.4192 12.9267C12.328 12.7858 12.2949 12.6152 12.3267 12.4504L12.517 11.467C12.5534 11.2786 12.6712 11.116 12.8389 11.0228L14.1115 10.315C14.321 10.1984 14.5777 10.2068 14.7791 10.3368L29.0769 19.5599L35.1946 16.0278Z" fill="white"/>
<mask id="mask0_1_716" style="mask-type:alpha" maskUnits="userSpaceOnUse" x="8" y="10" width="33" height="34">
<path fill-rule="evenodd" clip-rule="evenodd" d="M35.1946 16.0278C35.3946 15.9123 35.6151 15.8406 35.8456 15.8261C36.8621 15.7621 39.798 15.678 40.4347 16.7809C41.0715 17.8838 39.5298 20.3837 38.9661 21.2314C38.8383 21.4235 38.666 21.5784 38.4662 21.6938L32.3904 25.2016L33.2343 42.302C33.2461 42.5415 33.125 42.7679 32.9194 42.8911L31.6701 43.6393C31.5055 43.7379 31.3058 43.7587 31.1245 43.696L30.1776 43.369C30.019 43.3143 29.8878 43.2002 29.8114 43.0509L23.3534 30.4192L16.9843 34.0963L16.2974 38.7678C16.2498 39.0912 15.9694 39.3288 15.6426 39.3226L15.1446 39.3132C14.8928 39.3084 14.6664 39.1584 14.5638 38.9282L12.7741 34.9122C11.544 34.9515 10.3891 34.8306 10.0792 34.294C9.76972 33.7579 10.2429 32.7021 10.893 31.6611L8.32953 28.1301C8.18152 27.9263 8.16479 27.6552 8.28659 27.4347L8.52739 26.9987C8.68541 26.7126 9.03142 26.5886 9.33523 26.7091L13.6974 28.4392L20.0779 24.7555L12.4192 12.9267C12.328 12.7858 12.2949 12.6152 12.3267 12.4504L12.517 11.467C12.5534 11.2786 12.6712 11.116 12.8389 11.0228L14.1115 10.315C14.321 10.1984 14.5777 10.2068 14.7791 10.3368L29.0769 19.5599L35.1946 16.0278Z" fill="white"/>
</mask>
<g mask="url(#mask0_1_716)">
<rect x="29.536" y="17.7839" width="1.30853" height="12.4084" transform="rotate(60 29.536 17.7839)" fill="#EBECF2"/>
<path fill-rule="evenodd" clip-rule="evenodd" d="M32.9193 42.8911C33.125 42.768 33.2461 42.5415 33.2342 42.302L32.3628 24.6426L23.1264 29.9752L29.8113 43.0509C29.8877 43.2002 30.019 43.3143 30.1776 43.3691L31.1244 43.696C31.3057 43.7587 31.5054 43.7379 31.67 43.6393L32.9193 42.8911Z" fill="#DEE1E3"/>
<path opacity="0.4" fill-rule="evenodd" clip-rule="evenodd" d="M12.8366 34.8013L12.7476 34.8527L14.5638 38.9282C14.6664 39.1584 14.8928 39.3084 15.1447 39.3132L15.6426 39.3226C15.9694 39.3288 16.2498 39.0912 16.2974 38.7678L17.023 33.8334L16.56 34.1007C16.4167 34.1834 16.2626 34.2452 16.1011 34.2813C15.551 34.4041 14.1548 34.6951 12.8366 34.8013Z" fill="#DEE1E3"/>
<path fill-rule="evenodd" clip-rule="evenodd" d="M23.2482 30.2135L32.3776 24.9426L32.4768 26.954L24.9559 33.5538L23.2482 30.2135Z" fill="#C5C6CC"/>
<path fill-rule="evenodd" clip-rule="evenodd" d="M41.4823 19.9525L11.6913 37.1523C11.6913 37.1523 10.8123 35.5636 10.0793 34.294C10.0704 34.2786 10.062 34.2631 10.0541 34.2474C11.4056 34.3451 14.1269 34.2352 16.7661 32.7114L37.3906 20.8039C39.6822 19.4808 40.2435 17.7675 40.5526 17.0309C41.0312 18.316 41.4823 19.9525 41.4823 19.9525Z" fill="#DEE1E3"/>
</g>
</svg>
